<svg viewBox="0 0 1200 400" xmlns="http://www.w3.org/2000/svg">
  <!-- 배경 -->
  <rect width="1200" height="400" fill="#5D4037" />
  
  <!-- 서재 배경 -->
  <rect x="0" y="0" width="1200" height="400" fill="#3E2723" opacity="0.7" />
  
  <!-- 책장 -->
  <rect x="50" y="50" width="1100" height="300" fill="#5D4037" />
  <rect x="70" y="70" width="1060" height="260" fill="#4E342E" />
  
  <!-- 책장 선반 -->
  <rect x="70" y="130" width="1060" height="5" fill="#3E2723" />
  <rect x="70" y="190" width="1060" height="5" fill="#3E2723" />
  <rect x="70" y="250" width="1060" height="5" fill="#3E2723" />
  <rect x="70" y="310" width="1060" height="5" fill="#3E2723" />
  
  <!-- 책들 - 첫 번째 선반 -->
  <rect x="90" y="80" width="30" height="50" fill="#D7CCC8" />
  <rect x="125" y="80" width="40" height="50" fill="#BCAAA4" />
  <rect x="170" y="80" width="25" height="50" fill="#8D6E63" />
  <rect x="200" y="80" width="35" height="50" fill="#795548" />
  <rect x="240" y="80" width="20" height="50" fill="#6D4C41" />
  <rect x="265" y="80" width="30" height="50" fill="#A1887F" />
  <rect x="300" y="80" width="45" height="50" fill="#8D6E63" />
  
  <rect x="380" y="80" width="30" height="50" fill="#BCAAA4" />
  <rect x="415" y="80" width="25" height="50" fill="#8D6E63" />
  <rect x="445" y="80" width="35" height="50" fill="#A1887F" />
  <rect x="485" y="80" width="40" height="50" fill="#795548" />
  <rect x="530" y="80" width="20" height="50" fill="#5D4037" />
  
  <rect x="590" y="80" width="30" height="50" fill="#A1887F" />
  <rect x="625" y="80" width="35" height="50" fill="#8D6E63" />
  <rect x="665" y="80" width="25" height="50" fill="#6D4C41" />
  <rect x="695" y="80" width="40" height="50" fill="#D7CCC8" />
  <rect x="740" y="80" width="30" height="50" fill="#BCAAA4" />
  
  <rect x="810" y="80" width="25" height="50" fill="#8D6E63" />
  <rect x="840" y="80" width="35" height="50" fill="#6D4C41" />
  <rect x="880" y="80" width="30" height="50" fill="#795548" />
  <rect x="915" y="80" width="40" height="50" fill="#A1887F" />
  <rect x="960" y="80" width="20" height="50" fill="#5D4037" />
  <rect x="985" y="80" width="30" height="50" fill="#8D6E63" />
  <rect x="1020" y="80" width="35" height="50" fill="#BCAAA4" />
  <rect x="1060" y="80" width="30" height="50" fill="#D7CCC8" />
  
  <!-- 책들 - 두 번째 선반 -->
  <rect x="90" y="135" width="25" height="55" fill="#795548" />
  <rect x="120" y="135" width="35" height="55" fill="#8D6E63" />
  <rect x="160" y="135" width="30" height="55" fill="#A1887F" />
  <rect x="195" y="135" width="40" height="55" fill="#BCAAA4" />
  <rect x="240" y="135" width="25" height="55" fill="#D7CCC8" />
  <rect x="270" y="135" width="30" height="55" fill="#6D4C41" />
  
  <rect x="340" y="135" width="35" height="55" fill="#8D6E63" />
  <rect x="380" y="135" width="30" height="55" fill="#BCAAA4" />
  <rect x="415" y="135" width="25" height="55" fill="#A1887F" />
  <rect x="445" y="135" width="40" height="55" fill="#6D4C41" />
  <rect x="490" y="135" width="30" height="55" fill="#5D4037" />
  <rect x="525" y="135" width="35" height="55" fill="#795548" />
  
  <rect x="600" y="135" width="30" height="55" fill="#D7CCC8" />
  <rect x="635" y="135" width="25" height="55" fill="#BCAAA4" />
  <rect x="665" y="135" width="40" height="55" fill="#8D6E63" />
  <rect x="710" y="135" width="35" height="55" fill="#A1887F" />
  <rect x="750" y="135" width="25" height="55" fill="#795548" />
  <rect x="780" y="135" width="30" height="55" fill="#6D4C41" />
  
  <rect x="850" y="135" width="35" height="55" fill="#8D6E63" />
  <rect x="890" y="135" width="30" height="55" fill="#A1887F" />
  <rect x="925" y="135" width="25" height="55" fill="#BCAAA4" />
  <rect x="955" y="135" width="40" height="55" fill="#D7CCC8" />
  <rect x="1000" y="135" width="30" height="55" fill="#795548" />
  <rect x="1035" y="135" width="25" height="55" fill="#6D4C41" />
  <rect x="1065" y="135" width="35" height="55" fill="#A1887F" />
  
  <!-- 책들 - 세 번째 선반 -->
  <rect x="90" y="195" width="35" height="55" fill="#BCAAA4" />
  <rect x="130" y="195" width="30" height="55" fill="#A1887F" />
  <rect x="165" y="195" width="25" height="55" fill="#795548" />
  <rect x="195" y="195" width="35" height="55" fill="#6D4C41" />
  <rect x="235" y="195" width="40" height="55" fill="#D7CCC8" />
  <rect x="280" y="195" width="25" height="55" fill="#5D4037" />
  <rect x="310" y="195" width="30" height="55" fill="#8D6E63" />
  
  <rect x="380" y="195" width="35" height="55" fill="#A1887F" />
  <rect x="420" y="195" width="30" height="55" fill="#BCAAA4" />
  <rect x="455" y="195" width="40" height="55" fill="#D7CCC8" />
  <rect x="500" y="195" width="25" height="55" fill="#6D4C41" />
  <rect x="530" y="195" width="35" height="55" fill="#8D6E63" />
  
  <rect x="605" y="195" width="30" height="55" fill="#BCAAA4" />
  <rect x="640" y="195" width="40" height="55" fill="#A1887F" />
  <rect x="685" y="195" width="25" height="55" fill="#D7CCC8" />
  <rect x="715" y="195" width="30" height="55" fill="#795548" />
  <rect x="750" y="195" width="35" height="55" fill="#5D4037" />
  
  <rect x="825" y="195" width="30" height="55" fill="#8D6E63" />
  <rect x="860" y="195" width="35" height="55" fill="#6D4C41" />
  <rect x="900" y="195" width="40" height="55" fill="#BCAAA4" />
  <rect x="945" y="195" width="25" height="55" fill="#A1887F" />
  <rect x="975" y="195" width="30" height="55" fill="#D7CCC8" />
  <rect x="1010" y="195" width="40" height="55" fill="#795548" />
  <rect x="1055" y="195" width="30" height="55" fill="#8D6E63" />
  
  <!-- 전경에 반투명 오버레이 -->
  <rect width="1200" height="400" fill="#3E2723" opacity="0.3" />
  
  <!-- 텍스트 영역 -->
  <rect x="120" y="240" width="500" height="120" rx="10" fill="#3E2723" opacity="0.7" />
  
  <!-- 텍스트 -->
  <text x="150" y="290" font-family="'Noto Serif KR', serif" font-size="36" fill="#EFEBE9" font-weight="bold">도서관에 오신 것을 환영합니다</text>
  <text x="150" y="330" font-family="'Noto Sans KR', sans-serif" font-size="18" fill="#D7CCC8">다양한 도서와 함께 지식의 세계로 여행하세요</text>
</svg>