<svg viewBox="0 0 1200 400" xmlns="http://www.w3.org/2000/svg">
  <!-- 배경 -->
  <rect width="1200" height="400" fill="#5D4037" />
  
  <!-- 독서실 배경 -->
  <rect x="0" y="0" width="1200" height="400" fill="#3E2723" opacity="0.5" />
  
  <!-- 테이블 -->
  <rect x="200" y="220" width="800" height="20" fill="#A1887F" />
  <rect x="250" y="240" width="30" height="160" fill="#8D6E63" />
  <rect x="920" y="240" width="30" height="160" fill="#8D6E63" />
  
  <!-- 책과 램프 -->
  <rect x="400" y="150" width="120" height="20" fill="#795548" />
  <rect x="410" y="110" width="100" height="40" fill="#8D6E63" />
  <rect x="430" y="90" width="60" height="20" fill="#A1887F" />
  
  <!-- 램프 -->
  <circle cx="700" cy="140" r="40" fill="#FF9800" opacity="0.7" />
  <circle cx="700" cy="140" r="55" fill="#FF9800" opacity="0.3" />
  <circle cx="700" cy="140" r="70" fill="#FF9800" opacity="0.1" />
  <rect x="690" y="140" width="20" height="80" fill="#A1887F" />
  
  <!-- 책 더미 -->
  <rect x="500" y="170" width="60" height="10" fill="#D7CCC8" />
  <rect x="490" y="180" width="80" height="12" fill="#BCAAA4" />
  <rect x="495" y="192" width="70" height="8" fill="#A1887F" />
  <rect x="505" y="200" width="50" height="15" fill="#8D6E63" />
  <rect x="510" y="215" width="40" height="5" fill="#5D4037" />
  
  <!-- 테이블 위 커피 -->
  <rect x="800" y="180" width="60" height="10" rx="5" fill="#4E342E" />
  <rect x="810" y="150" width="40" height="30" rx="5" fill="#6D4C41" />
  <ellipse cx="830" cy="150" rx="20" ry="5" fill="#5D4037" />
  
  <!-- 의자 -->
  <rect x="600" y="250" width="150" height="20" rx="5" fill="#8D6E63" />
  <rect x="620" y="270" width="20" height="130" fill="#6D4C41" />
  <rect x="710" y="270" width="20" height="130" fill="#6D4C41" />
  
  <!-- 창문 -->
  <rect x="50" y="80" width="200" height="200" rx="5" fill="#BCAAA4" />
  <rect x="60" y="90" width="180" height="180" rx="5" fill="#4E342E" />
  <line x1="60" y1="180" x2="240" y2="180" stroke="#BCAAA4" stroke-width="2" />
  <line x1="150" y1="90" x2="150" y2="270" stroke="#BCAAA4" stroke-width="2" />
  
  <!-- 책장 -->
  <rect x="950" y="50" width="200" height="300" fill="#5D4037" />
  <rect x="960" y="60" width="180" height="280" fill="#4E342E" />
  
  <!-- 책장 선반 -->
  <rect x="960" y="110" width="180" height="2" fill="#3E2723" />
  <rect x="960" y="160" width="180" height="2" fill="#3E2723" />
  <rect x="960" y="210" width="180" height="2" fill="#3E2723" />
  <rect x="960" y="260" width="180" height="2" fill="#3E2723" />
  <rect x="960" y="310" width="180" height="2" fill="#3E2723" />
  
  <!-- 책들 -->
  <rect x="970" y="70" width="15" height="40" fill="#D7CCC8" />
  <rect x="985" y="70" width="20" height="40" fill="#BCAAA4" />
  <rect x="1005" y="70" width="10" height="40" fill="#A1887F" />
  <rect x="1015" y="70" width="15" height="40" fill="#8D6E63" />
  <rect x="1030" y="70" width="20" height="40" fill="#795548" />
  <rect x="1050" y="70" width="18" height="40" fill="#6D4C41" />
  <rect x="1068" y="70" width="12" height="40" fill="#5D4037" />
  <rect x="1080" y="70" width="25" height="40" fill="#8D6E63" />
  <rect x="1105" y="70" width="20" height="40" fill="#A1887F" />
  
  <!-- 아래 선반들에도 책 채우기 -->
  <rect x="970" y="112" width="20" height="48" fill="#BCAAA4" />
  <rect x="990" y="112" width="15" height="48" fill="#A1887F" />
  <rect x="1005" y="112" width="25" height="48" fill="#8D6E63" />
  <rect x="1030" y="112" width="18" height="48" fill="#6D4C41" />
  <rect x="1048" y="112" width="22" height="48" fill="#5D4037" />
  <rect x="1070" y="112" width="15" height="48" fill="#795548" />
  <rect x="1085" y="112" width="30" height="48" fill="#8D6E63" />
  <rect x="1115" y="112" width="15" height="48" fill="#A1887F" />
  
  <!-- 전경에 반투명 오버레이 -->
  <rect width="1200" height="400" fill="#3E2723" opacity="0.2" />
  
  <!-- 텍스트 배경 -->
  <rect x="150" y="270" width="500" height="100" rx="10" fill="#3E2723" opacity="0.7" />
  
  <!-- 텍스트 -->
  <text x="180" y="320" font-family="'Noto Serif KR', serif" font-size="36" fill="#EFEBE9" font-weight="bold">온라인 도서 예약</text>
  <text x="180" y="350" font-family="'Noto Sans KR', sans-serif" font-size="18" fill="#D7CCC8">집에서 편하게 도서를 예약하고 대출하세요</text>
</svg>